<svg xmlns="http://www.w3.org/2000/svg" width="22.74" height="15" viewBox="0 0 22.74 15"><g transform="translate(-345.155 -441.786)"><path d="M356.517,456.786c-7.176,0-11.068-6.964-11.23-7.26l-.132-.24.132-.24c.162-.3,4.054-7.254,11.238-7.26h.011c7.178,0,11.066,6.964,11.228,7.26l.132.24-.132.24c-.162.3-4.057,7.253-11.238,7.26Zm-10.21-7.5c.744,1.2,4.351,6.5,10.21,6.5h.008c5.876-.006,9.477-5.3,10.219-6.5-.742-1.2-4.348-6.5-10.209-6.5h-.009C350.659,442.791,347.051,448.084,346.307,449.286Z" fill="#040405"/><circle cx="3.049" cy="3.049" r="3.049" transform="translate(353.373 446.222)" fill="#040405"/></g></svg>