<svg class="spinner" xmlns="http://www.w3.org/2000/svg" version="1.1"  viewBox="-10 -10 220 220">
  <defs>
    <linearGradient id="transparent" gradientUnits="objectBoundingBox" x1="0" y1="0" x2="0" y2="1">
        <stop offset="0%" stop-color="rgba(119, 119, 119, 0)" stop-opacity="0"/>   
        <stop offset="100%" stop-color="rgba(119, 119, 119, 0)" stop-opacity="0"/>   
    </linearGradient>
    <linearGradient id="one" gradientUnits="objectBoundingBox" x1="1" y1="0" x2="0" y2="1">
        <stop offset="0%" stop-color="rgba(119, 119, 119, 0)" stop-opacity="0"/>   
        <stop offset="100%" stop-color="rgba(119, 119, 119, .33)"/>   
    </linearGradient>
    <linearGradient id="two" gradientUnits="objectBoundingBox" x1="1" y1="1" x2="0" y2="0">
        <stop offset="0%" stop-color="rgba(119, 119, 119, .33)"/>   
        <stop offset="100%" stop-color="rgba(119, 119, 119, .66)"/>   
    </linearGradient>
    <linearGradient id="three" gradientUnits="objectBoundingBox" x1="0" y1="1" x2="0" y2="0">
        <stop offset="0%" stop-color="rgba(119, 119, 119, .66)"/>   
        <stop offset="100%" stop-color="rgba(119, 119, 119, 1)"/>   
    </linearGradient>
    <linearGradient id="four" gradientUnits="objectBoundingBox" x1="0" y1="1" x2="1" y2="0">
        <stop offset="0%" stop-color="rgba(119, 119, 119, 1)"/>   
        <stop offset="100%" stop-color="rgba(119, 119, 119, 1)"/>   
    </linearGradient>
    <linearGradient id="five" gradientUnits="objectBoundingBox" x1="0" y1="0" x2="1" y2="1">
        <stop offset="0%" stop-color="rgba(119, 119, 119, 1)"/>   
        <stop offset="100%" stop-color="rgba(119, 119, 119, 1)"/>   
    </linearGradient>
  </defs>

  <g fill="none" stroke-width="20"  transform="translate(100,100)">

    <path d="M 86.6,-50 A 100,100 0 0,1 86.6,50" stroke="url(#transparent)"/>
    <path d="M 86.6,50 A 100,100 0 0,1 0,100" stroke="url(#one)"/>
    <path d="M 0,100 A 100,100 0 0,1 -86.6,50" stroke="url(#two)"/>
    <path d="M -86.6,50 A 100,100 0 0,1 -86.6,-50" stroke="url(#three)"/>
    <path d="M -86.6,-50 A 100,100 0 0,1 0,-100" stroke="url(#four)"/>
    <path d="M 0,-100 A 100,100 0 0,1 86.6,-50" stroke="url(#five)" stroke-linecap="round"/>
  </g>
</svg>