<svg xmlns="http://www.w3.org/2000/svg" id="more_1_" width="38.5" height="38.5" viewBox="0 0 38.5 38.5">
    <defs>
        <style>
            .cls-1{fill:#ec2928}
        </style>
    </defs>
    <g id="Group_5427">
        <g id="Group_5426">
            <path id="Path_10832" d="M19.25 0A19.25 19.25 0 1 0 38.5 19.25 19.239 19.239 0 0 0 19.25 0zm0 35.933A16.683 16.683 0 1 1 35.933 19.25 16.7 16.7 0 0 1 19.25 35.933z" class="cls-1"/>
        </g>
    </g>
    <g id="Group_5429" transform="translate(9.293 9.293)">
        <g id="Group_5428">
            <path id="Path_10833" d="M142.218 132.261h-7.39v-7.39a1.283 1.283 0 1 0-2.567 0v7.39h-7.39a1.283 1.283 0 0 0 0 2.567h7.39v7.39a1.283 1.283 0 1 0 2.567 0v-7.39h7.39a1.283 1.283 0 1 0 0-2.567z" class="cls-1" transform="translate(-123.588 -123.588)"/>
        </g>
    </g>
</svg>
