<svg xmlns="http://www.w3.org/2000/svg" id="box_2_" width="29.165" height="27.178" viewBox="0 0 29.165 27.178">
    <defs>
        <style>
            .cls-1{fill:#ec2928}
        </style>
    </defs>
    <path id="Path_10461" d="M36.389 37.345h-1.47a1.448 1.448 0 0 0-1.383-1.063h-1.57v-3.839a.4.4 0 0 0-.2-.358l-11.074-6.4a.409.409 0 0 0-.411 0l-11.078 6.4a.412.412 0 0 0-.203.358v12.793a.413.413 0 0 0 .207.358l11.079 6.4a.413.413 0 0 0 .207.055.435.435 0 0 0 .213-.055l5.83-3.363v2.431a1.75 1.75 0 0 0 1.764 1.75h8.09a1.76 1.76 0 0 0 1.776-1.754V39.127a1.783 1.783 0 0 0-1.776-1.782zm-2.838-.236a.6.6 0 0 1 .6.6v.04a.6.6 0 0 1-.6.6h-2.4a.6.6 0 0 1-.6-.6v-.04a.6.6 0 0 1 .6-.6zM20.492 26.524l4.6 2.658L14.844 35.1l-4.6-2.658zM20.1 50.916L9.827 45V33.158L20.1 39.077zm.393-12.555l-4.822-2.784 10.252-5.918 4.822 2.784zm6.042.765v8.546l-5.609 3.243V39.077l10.214-5.919v3.124h.013a1.448 1.448 0 0 0-1.383 1.063H28.3a1.773 1.773 0 0 0-1.765 1.782zm10.8 11.931a.932.932 0 0 1-.95.928H28.3a.923.923 0 0 1-.938-.928v-11.93a.946.946 0 0 1 .938-.955h1.487a1.414 1.414 0 0 0 1.366 1h2.384a1.414 1.414 0 0 0 1.366-1h1.487a.956.956 0 0 1 .95.955z" class="cls-1" transform="translate(-9 -25.634)"/>
    <path id="Path_10462" d="M337.41 280.775h.433a.413.413 0 1 0 0-.827h-.016v-1.122h1.14a.4.4 0 0 0 .393.279.414.414 0 0 0 .415-.412v-.278a.419.419 0 0 0-.418-.415h-1.947a.412.412 0 0 0-.41.415v1.947a.41.41 0 0 0 .41.413z" class="cls-1" transform="translate(-317.635 -263.101)"/>
    <path id="Path_10463" d="M337.413 344.775h1.948a.413.413 0 0 0 .413-.413v-1.948a.413.413 0 0 0-.413-.413h-1.948a.413.413 0 0 0-.413.413v1.948a.413.413 0 0 0 .413.413zm.413-1.948h1.122v1.122h-1.122z" class="cls-1" transform="translate(-317.635 -323.323)"/>
    <path id="Path_10464" d="M337.842 407.948h-.016v-1.122h1.117a.415.415 0 1 0 .831 0v-.4a.431.431 0 0 0-.418-.429h-1.946a.424.424 0 0 0-.41.429v1.947a.4.4 0 0 0 .41.4h.433a.413.413 0 0 0 0-.827z" class="cls-1" transform="translate(-317.635 -383.545)"/>
    <path id="Path_10465" d="M356.639 284.66l-1.21 1.21-.368-.368a.413.413 0 1 0-.585.584l.661.66a.413.413 0 0 0 .584 0l1.5-1.5a.413.413 0 1 0-.584-.584z" class="cls-1" transform="translate(-333.965 -269.254)"/>
    <path id="Path_10466" d="M356.639 413.909l-1.21 1.21-.368-.368a.413.413 0 1 0-.585.585l.661.66a.413.413 0 0 0 .584 0l1.5-1.5a.413.413 0 1 0-.584-.585z" class="cls-1" transform="translate(-333.965 -390.872)"/>
    <path id="Path_10467" d="M416.9 295h-2.6a.413.413 0 0 0 0 .827h2.6a.413.413 0 1 0 0-.827z" class="cls-1" transform="translate(-389.987 -279.098)"/>
    <path id="Path_10468" d="M416.9 359h-2.6a.413.413 0 0 0 0 .826h2.6a.413.413 0 1 0 0-.826z" class="cls-1" transform="translate(-389.987 -339.319)"/>
    <path id="Path_10469" d="M416.9 423h-2.6a.413.413 0 0 0 0 .827h2.6a.413.413 0 0 0 0-.827z" class="cls-1" transform="translate(-389.987 -399.541)"/>
</svg>
