<svg id="Group_9979" data-name="Group 9979" xmlns="http://www.w3.org/2000/svg" width="27.499" height="27.499" viewBox="0 0 27.499 27.499">
  <g id="Group_9952" data-name="Group 9952">
    <g id="Group_9951" data-name="Group 9951">
      <path id="Path_15231" data-name="Path 15231" d="M25.207,3.667h-.458V1.375A1.377,1.377,0,0,0,23.374,0h-.917a1.377,1.377,0,0,0-1.375,1.375V3.667H6.416V1.375A1.377,1.377,0,0,0,5.041,0H4.125A1.377,1.377,0,0,0,2.75,1.375V3.667H2.292A2.294,2.294,0,0,0,0,5.958V25.207A2.294,2.294,0,0,0,2.292,27.5H25.207A2.294,2.294,0,0,0,27.5,25.207V5.958A2.294,2.294,0,0,0,25.207,3.667ZM22,4.125V1.375a.458.458,0,0,1,.458-.458h.917a.458.458,0,0,1,.458.458V5.958a.458.458,0,0,1-.458.458h-.917A.458.458,0,0,1,22,5.958Zm-18.333,0V1.375A.458.458,0,0,1,4.125.917h.917a.458.458,0,0,1,.458.458V5.958a.458.458,0,0,1-.458.458H4.125a.458.458,0,0,1-.458-.458ZM26.582,25.207a1.377,1.377,0,0,1-1.375,1.375H2.292A1.377,1.377,0,0,1,.917,25.207V11.916H26.582Zm0-14.208H.917V5.958A1.377,1.377,0,0,1,2.292,4.583H2.75V5.958A1.377,1.377,0,0,0,4.125,7.333h.917A1.377,1.377,0,0,0,6.416,5.958V4.583H21.083V5.958a1.377,1.377,0,0,0,1.375,1.375h.917a1.377,1.377,0,0,0,1.375-1.375V4.583h.458a1.377,1.377,0,0,1,1.375,1.375Z" fill="#fff"/>
    </g>
  </g>
  <g id="Group_9954" data-name="Group 9954" transform="translate(8.25 5.958)">
    <g id="Group_9953" data-name="Group 9953">
      <path id="Path_15232" data-name="Path 15232" d="M154.541,104H144.458a.458.458,0,0,0-.458.458v2.75a.458.458,0,0,0,.458.458h10.083a.458.458,0,0,0,.458-.458v-2.75A.458.458,0,0,0,154.541,104Zm-.458,2.75h-9.166v-1.833h9.166Z" transform="translate(-144 -104)" fill="#fff"/>
    </g>
  </g>
  <g id="Group_9956" data-name="Group 9956" transform="translate(2.75 13.291)">
    <g id="Group_9955" data-name="Group 9955">
      <path id="Path_15233" data-name="Path 15233" d="M51.208,232h-2.75a.458.458,0,0,0-.458.458v2.292a.458.458,0,0,0,.458.458h2.75a.458.458,0,0,0,.458-.458v-2.292A.458.458,0,0,0,51.208,232Zm-.458,2.292H48.917v-1.375H50.75Z" transform="translate(-48 -232)" fill="#fff"/>
    </g>
  </g>
  <g id="Group_9958" data-name="Group 9958" transform="translate(8.708 13.291)">
    <g id="Group_9957" data-name="Group 9957">
      <path id="Path_15234" data-name="Path 15234" d="M155.208,232h-2.75a.458.458,0,0,0-.458.458v2.292a.458.458,0,0,0,.458.458h2.75a.458.458,0,0,0,.458-.458v-2.292A.458.458,0,0,0,155.208,232Zm-.458,2.292h-1.833v-1.375h1.833Z" transform="translate(-152 -232)" fill="#fff"/>
    </g>
  </g>
  <g id="Group_9960" data-name="Group 9960" transform="translate(15.124 13.291)">
    <g id="Group_9959" data-name="Group 9959">
      <path id="Path_15235" data-name="Path 15235" d="M267.208,232h-2.75a.458.458,0,0,0-.458.458v2.292a.458.458,0,0,0,.458.458h2.75a.458.458,0,0,0,.458-.458v-2.292A.458.458,0,0,0,267.208,232Zm-.458,2.292h-1.833v-1.375h1.833Z" transform="translate(-264 -232)" fill="#fff"/>
    </g>
  </g>
  <g id="Group_9962" data-name="Group 9962" transform="translate(21.083 13.291)">
    <g id="Group_9961" data-name="Group 9961">
      <path id="Path_15236" data-name="Path 15236" d="M371.208,232h-2.75a.458.458,0,0,0-.458.458v2.292a.458.458,0,0,0,.458.458h2.75a.458.458,0,0,0,.458-.458v-2.292A.458.458,0,0,0,371.208,232Zm-.458,2.292h-1.833v-1.375h1.833Z" transform="translate(-368 -232)" fill="#fff"/>
    </g>
  </g>
  <g id="Group_9964" data-name="Group 9964" transform="translate(2.75 17.874)">
    <g id="Group_9963" data-name="Group 9963">
      <path id="Path_15237" data-name="Path 15237" d="M51.208,312h-2.75a.458.458,0,0,0-.458.458v2.292a.458.458,0,0,0,.458.458h2.75a.458.458,0,0,0,.458-.458v-2.292A.458.458,0,0,0,51.208,312Zm-.458,2.292H48.917v-1.375H50.75Z" transform="translate(-48 -312)" fill="#fff"/>
    </g>
  </g>
  <g id="Group_9966" data-name="Group 9966" transform="translate(8.708 17.874)">
    <g id="Group_9965" data-name="Group 9965">
      <path id="Path_15238" data-name="Path 15238" d="M155.208,312h-2.75a.458.458,0,0,0-.458.458v2.292a.458.458,0,0,0,.458.458h2.75a.458.458,0,0,0,.458-.458v-2.292A.458.458,0,0,0,155.208,312Zm-.458,2.292h-1.833v-1.375h1.833Z" transform="translate(-152 -312)" fill="#fff"/>
    </g>
  </g>
  <g id="Group_9968" data-name="Group 9968" transform="translate(15.124 17.874)">
    <g id="Group_9967" data-name="Group 9967">
      <path id="Path_15239" data-name="Path 15239" d="M267.208,312h-2.75a.458.458,0,0,0-.458.458v2.292a.458.458,0,0,0,.458.458h2.75a.458.458,0,0,0,.458-.458v-2.292A.458.458,0,0,0,267.208,312Zm-.458,2.292h-1.833v-1.375h1.833Z" transform="translate(-264 -312)" fill="#fff"/>
    </g>
  </g>
  <g id="Group_9970" data-name="Group 9970" transform="translate(21.083 17.874)">
    <g id="Group_9969" data-name="Group 9969">
      <path id="Path_15240" data-name="Path 15240" d="M371.208,312h-2.75a.458.458,0,0,0-.458.458v2.292a.458.458,0,0,0,.458.458h2.75a.458.458,0,0,0,.458-.458v-2.292A.458.458,0,0,0,371.208,312Zm-.458,2.292h-1.833v-1.375h1.833Z" transform="translate(-368 -312)" fill="#fff"/>
    </g>
  </g>
  <g id="Group_9972" data-name="Group 9972" transform="translate(2.75 22.458)">
    <g id="Group_9971" data-name="Group 9971">
      <path id="Path_15241" data-name="Path 15241" d="M51.208,392h-2.75a.458.458,0,0,0-.458.458v2.292a.458.458,0,0,0,.458.458h2.75a.458.458,0,0,0,.458-.458v-2.292A.458.458,0,0,0,51.208,392Zm-.458,2.292H48.917v-1.375H50.75Z" transform="translate(-48 -392)" fill="#fff"/>
    </g>
  </g>
  <g id="Group_9974" data-name="Group 9974" transform="translate(8.708 22.458)">
    <g id="Group_9973" data-name="Group 9973">
      <path id="Path_15242" data-name="Path 15242" d="M155.208,392h-2.75a.458.458,0,0,0-.458.458v2.292a.458.458,0,0,0,.458.458h2.75a.458.458,0,0,0,.458-.458v-2.292A.458.458,0,0,0,155.208,392Zm-.458,2.292h-1.833v-1.375h1.833Z" transform="translate(-152 -392)" fill="#fff"/>
    </g>
  </g>
  <g id="Group_9976" data-name="Group 9976" transform="translate(14.8 22.164)">
    <g id="Group_9975" data-name="Group 9975">
      <path id="Path_15243" data-name="Path 15243" d="M261.983,386.88l-1.97,2.364-1.02-1.02-.648.648,1.375,1.375a.455.455,0,0,0,.324.134h.021a.462.462,0,0,0,.332-.164l2.292-2.75Z" transform="translate(-258.344 -386.88)" fill="#fff"/>
    </g>
  </g>
  <g id="Group_9978" data-name="Group 9978" transform="translate(20.3 22.164)">
    <g id="Group_9977" data-name="Group 9977">
      <path id="Path_15244" data-name="Path 15244" d="M357.983,386.88l-1.97,2.364-1.02-1.02-.648.648,1.375,1.375a.455.455,0,0,0,.324.134h.021a.462.462,0,0,0,.332-.164l2.292-2.75Z" transform="translate(-354.344 -386.88)" fill="#fff"/>
    </g>
  </g>
</svg>
