<svg xmlns="http://www.w3.org/2000/svg" width="29.471" height="29.471" viewBox="0 0 29.471 29.471">
    <defs>
        <style>
            .cls-1{fill:#ec2928}
        </style>
    </defs>
    <g id="edit" transform="translate(0 -.004)">
        <g id="Group_5385" transform="translate(0 2.109)">
            <g id="Group_5384">
                <path id="Path_10830" d="M24.208 46.767a1.053 1.053 0 0 0-1.053 1.053v10.525A1.053 1.053 0 0 1 22.1 59.4H3.158a1.053 1.053 0 0 1-1.053-1.053V37.295a1.053 1.053 0 0 1 1.053-1.053h12.63a1.053 1.053 0 1 0 0-2.105H3.158A3.158 3.158 0 0 0 0 37.295v21.05A3.158 3.158 0 0 0 3.158 61.5H22.1a3.158 3.158 0 0 0 3.158-3.158V47.82a1.053 1.053 0 0 0-1.05-1.053z" class="cls-1" transform="translate(0 -34.137)"/>
            </g>
        </g>
        <g id="Group_5387" transform="translate(6.316 .004)">
            <g id="Group_5386">
                <path id="Path_10831" d="M124.384 1.184a4.029 4.029 0 0 0-5.7 0l-13.862 13.864a1.064 1.064 0 0 0-.254.412l-2.105 6.315a1.053 1.053 0 0 0 1 1.385 1.069 1.069 0 0 0 .333-.054L110.108 21a1.053 1.053 0 0 0 .412-.255l13.864-13.863a4.029 4.029 0 0 0 0-5.698zM122.9 5.395l-13.687 13.683-4.088 1.365 1.361-4.083 13.688-13.683a1.923 1.923 0 1 1 2.726 2.718z" class="cls-1" transform="translate(-102.409 -.004)"/>
            </g>
        </g>
    </g>
</svg>
