<svg xmlns="http://www.w3.org/2000/svg" width="34.277" height="39" viewBox="0 0 34.277 39">
    <defs>
        <style>
            .cls-1{fill:#ec2928}
        </style>
    </defs>
    <g id="garbage" transform="translate(-31)">
        <g id="Group_5272" transform="translate(31)">
            <g id="Group_5271">
                <path id="Path_10800" d="M61.85 4.57h-6.856V3.428A3.432 3.432 0 0 0 51.566 0h-6.855a3.432 3.432 0 0 0-3.428 3.428V4.57h-6.855A3.432 3.432 0 0 0 31 8v2.285a1.143 1.143 0 0 0 1.143 1.143h1.233l2.01 24.447v.01A3.411 3.411 0 0 0 38.8 39h18.678a3.411 3.411 0 0 0 3.414-3.117v-.01L62.9 11.426h1.233a1.143 1.143 0 0 0 1.143-1.143V8a3.432 3.432 0 0 0-3.426-3.43zM43.568 3.428a1.144 1.144 0 0 1 1.143-1.143h6.855a1.144 1.144 0 0 1 1.143 1.143V4.57h-9.141zm15.047 32.251a1.137 1.137 0 0 1-1.138 1.035H38.8a1.137 1.137 0 0 1-1.138-1.035l-1.994-24.253h24.941zm4.377-26.538H33.285V8a1.144 1.144 0 0 1 1.143-1.143H61.85A1.144 1.144 0 0 1 62.992 8z" class="cls-1" transform="translate(-31)"/>
            </g>
        </g>
        <g id="Group_5274" transform="translate(46.996 13.711)">
            <g id="Group_5273">
                <path id="Path_10801" d="M242.143 180a1.143 1.143 0 0 0-1.143 1.143v16.148a1.143 1.143 0 1 0 2.285 0v-16.148a1.143 1.143 0 0 0-1.142-1.143z" class="cls-1" transform="translate(-241 -180)"/>
            </g>
        </g>
        <g id="Group_5276" transform="translate(53.852 13.711)">
            <g id="Group_5275">
                <path id="Path_10802" d="M332.143 180a1.143 1.143 0 0 0-1.143 1.143v16.148a1.143 1.143 0 1 0 2.285 0v-16.148a1.143 1.143 0 0 0-1.142-1.143z" class="cls-1" transform="translate(-331 -180)"/>
            </g>
        </g>
        <g id="Group_5278" transform="translate(40.141 13.711)">
            <g id="Group_5277">
                <path id="Path_10803" d="M152.143 180a1.143 1.143 0 0 0-1.143 1.143v16.148a1.143 1.143 0 1 0 2.285 0v-16.148a1.143 1.143 0 0 0-1.142-1.143z" class="cls-1" transform="translate(-151 -180)"/>
            </g>
        </g>
    </g>
</svg>
