<svg xmlns="http://www.w3.org/2000/svg" width="22.74" height="15" viewBox="0 0 22.74 15"><g transform="translate(-321.813 -387.913)"><path d="M333.174,402.913c-7.176,0-11.068-6.964-11.23-7.261l-.132-.239.132-.241c.162-.3,4.054-7.254,11.239-7.259h.008c7.179,0,11.068,6.963,11.23,7.26l.132.24-.132.24c-.162.3-4.057,7.254-11.238,7.26Zm-10.21-7.5c.744,1.2,4.351,6.5,10.21,6.5h.009c5.876-.005,9.476-5.3,10.218-6.5-.742-1.2-4.347-6.5-10.21-6.5h-.008C327.316,388.917,323.708,394.21,322.964,395.413Z" fill="#040405"/><path d="M333.078,398.947a3.549,3.549,0,1,1,3.55-3.55A3.554,3.554,0,0,1,333.078,398.947Zm0-6.1a2.549,2.549,0,1,0,2.55,2.548A2.552,2.552,0,0,0,333.078,392.849Z" fill="#040405"/></g></svg>