<svg xmlns="http://www.w3.org/2000/svg" width="26.53" height="26.53" viewBox="0 0 26.53 26.53">
    <defs>
        <style>
            .cls-1{fill:#ec2928}
        </style>
    </defs>
    <g id="notepad">
        <g id="Group_1581">
            <g id="Group_1580">
                <path id="Path_914" d="M25.621 6.978a3.169 3.169 0 0 0-4.448 0l-.859.858V3.9A2.327 2.327 0 0 0 18 1.565h-.844V.777a.777.777 0 0 0-1.554 0v.788h-1.557V.777a.777.777 0 0 0-1.554 0v.788h-1.555V.777a.777.777 0 0 0-1.554 0v.788H7.827V.777a.777.777 0 0 0-1.554 0v.788H4.718V.777a.777.777 0 0 0-1.554 0v.788h-.778A2.357 2.357 0 0 0 0 3.89V24.2a2.37 2.37 0 0 0 2.385 2.33H18a2.3 2.3 0 0 0 2.316-2.314V16.65c1.8-1.781 3.542-3.51 5.307-5.276a3.107 3.107 0 0 0-.002-4.396zM18.76 24.215a.754.754 0 0 1-.76.765H2.386a.826.826 0 0 1-.828-.777V3.89a.831.831 0 0 1 .829-.78h.777v.777a.777.777 0 0 0 1.554 0V3.11h1.554v.777a.777.777 0 0 0 1.554 0V3.11h1.555v.777a.777.777 0 0 0 1.554 0V3.11h1.555v.777a.777.777 0 0 0 1.554 0V3.11H15.6v.777a.777.777 0 0 0 1.554 0V3.11H18a.771.771 0 0 1 .762.788V9.39L14.1 14.047H3.941a.775.775 0 1 0 0 1.549h8.6c-.925.925-1.484 1.489-1.555 1.56H3.941a.777.777 0 1 0 0 1.554h6.346l-.518 1.554H3.941a.777.777 0 0 0 0 1.555h5.31l-.243.728a.778.778 0 0 0 .983.983l4.946-1.649a.777.777 0 0 0 .3-.188q1.783-1.783 3.519-3.5v6.023zm-5.216-3.507l-2.57.857.857-2.57zm1.342-.856l-2.2-2.2c2.441-2.44 4.786-4.781 7.236-7.228l2.238 2.2c-1.025 1.025-5.926 5.882-7.274 7.227zm9.636-9.576l-1.258 1.256-2.24-2.206 1.249-1.248a1.616 1.616 0 0 1 2.25 0 1.556 1.556 0 0 1-.001 2.197z" class="cls-1" transform="translate(-.003)"/>
            </g>
        </g>
        <g id="Group_1583" transform="translate(3.161 7.829)">
            <g id="Group_1582">
                <path id="Path_915" d="M67.477 151.094h-5.7a.777.777 0 0 0 0 1.554h5.7a.777.777 0 0 0 0-1.554z" class="cls-1" transform="translate(-61.001 -151.094)"/>
            </g>
        </g>
        <g id="Group_1585" transform="translate(3.161 10.938)">
            <g id="Group_1584">
                <path id="Path_916" d="M70.7 211.092h-8.922a.777.777 0 0 0 0 1.554H70.7a.777.777 0 0 0 0-1.554z" class="cls-1" transform="translate(-61.001 -211.092)"/>
            </g>
        </g>
    </g>
</svg>
