<svg xmlns="http://www.w3.org/2000/svg" width="25.98" height="28" viewBox="0 0 25.98 28">
    <defs>
        <style>
            .cls-1{fill:#ec2928}
        </style>
    </defs>
    <g id="Group_4746" transform="translate(-44.524 -152)">
        <g id="order_3_" transform="translate(44.524 152)">
            <path id="Path_10470" d="M128 48h3.977v.8H128zm0 0" class="cls-1" transform="translate(-121.637 -45.614)"/>
            <path id="Path_10471" d="M51.579 88H48v2.386h3.579zm-.8 1.591H48.8v-.8h1.988zm0 0" class="cls-1" transform="translate(-45.614 -83.626)"/>
            <path id="Path_10472" d="M136 104h3.579v.8H136zm0 0" class="cls-1" transform="translate(-129.24 -98.83)"/>
            <path id="Path_10473" d="M51.579 152H48v2.386h3.579zm-.8 1.591H48.8v-.8h1.988zm0 0" class="cls-1" transform="translate(-45.614 -144.445)"/>
            <path id="Path_10474" d="M136 168h3.579v.8H136zm0 0" class="cls-1" transform="translate(-129.24 -159.649)"/>
            <path id="Path_10475" d="M51.579 216H48v2.386h3.579zm-.8 1.591H48.8v-.8h1.988zm0 0" class="cls-1" transform="translate(-45.614 -205.263)"/>
            <path id="Path_10476" d="M136 232h3.579v.8H136zm0 0" class="cls-1" transform="translate(-129.24 -220.468)"/>
            <path id="Path_10477" d="M51.579 280H48v2.386h3.579zm-.8 1.591H48.8v-.8h1.988zm0 0" class="cls-1" transform="translate(-45.614 -266.082)"/>
            <path id="Path_10478" d="M136 296h3.579v.8H136zm0 0" class="cls-1" transform="translate(-129.24 -281.287)"/>
            <path id="Path_10479" d="M48 344h11.93v.8H48zm0 0" class="cls-1" transform="translate(-45.614 -326.901)"/>
            <path id="Path_10480" d="M48 376h2.784v.8H48zm0 0" class="cls-1" transform="translate(-45.614 -357.31)"/>
            <path id="Path_10481" d="M128 376h4.374v.8H128zm0 0" class="cls-1" transform="translate(-121.637 -357.31)"/>
            <path id="Path_10482" d="M224 104h1.193v.8H224zm0 0" class="cls-1" transform="translate(-212.866 -98.83)"/>
            <path id="Path_10483" d="M264 104h1.193v.8H264zm0 0" class="cls-1" transform="translate(-250.877 -98.83)"/>
            <path id="Path_10484" d="M224 168h1.193v.8H224zm0 0" class="cls-1" transform="translate(-212.866 -159.649)"/>
            <path id="Path_10485" d="M264 168h1.193v.8H264zm0 0" class="cls-1" transform="translate(-250.877 -159.649)"/>
            <path id="Path_10486" d="M224 232h1.193v.8H224zm0 0" class="cls-1" transform="translate(-212.866 -220.468)"/>
            <path id="Path_10487" d="M264 232h1.193v.8H264zm0 0" class="cls-1" transform="translate(-250.877 -220.468)"/>
            <path id="Path_10488" d="M224 296h1.193v.8H224zm0 0" class="cls-1" transform="translate(-212.866 -281.287)"/>
            <path id="Path_10489" d="M264 296h1.193v.8H264zm0 0" class="cls-1" transform="translate(-250.877 -281.287)"/>
            <path id="Path_10490" d="M15.509 0H1.193A1.172 1.172 0 0 0 0 1.193v21.473a1.172 1.172 0 0 0 1.193 1.193h12.089l3.42-3.818V1.193A1.172 1.172 0 0 0 15.509 0zm.4 19.724l-2.389 2.664v-1.71a.376.376 0 0 1 .4-.4h.8v-.8h-.8a1.172 1.172 0 0 0-1.193 1.193v2.386H1.193a.376.376 0 0 1-.4-.4V1.193a.376.376 0 0 1 .4-.4h14.316a.376.376 0 0 1 .4.4zm0 0" class="cls-1"/>
        </g>
        <g id="Group_4745" transform="translate(53.802 155.976)">
            <path id="Rectangle_1638" fill="#fff" d="M0 0H16V24H0z" transform="translate(.198 .023)"/>
            <g id="order_3_2">
                <path id="Path_10470-2" d="M128 48h3.977v.8H128zm0 0" class="cls-1" transform="translate(-121.637 -45.614)"/>
                <path id="Path_10471-2" d="M51.579 88H48v2.386h3.579zm-.8 1.591H48.8v-.8h1.988zm0 0" class="cls-1" transform="translate(-45.614 -83.626)"/>
                <path id="Path_10472-2" d="M136 104h3.579v.8H136zm0 0" class="cls-1" transform="translate(-129.24 -98.83)"/>
                <path id="Path_10473-2" d="M51.579 152H48v2.386h3.579zm-.8 1.591H48.8v-.8h1.988zm0 0" class="cls-1" transform="translate(-45.614 -144.445)"/>
                <path id="Path_10474-2" d="M136 168h3.579v.8H136zm0 0" class="cls-1" transform="translate(-129.24 -159.649)"/>
                <path id="Path_10475-2" d="M51.579 216H48v2.386h3.579zm-.8 1.591H48.8v-.8h1.988zm0 0" class="cls-1" transform="translate(-45.614 -205.263)"/>
                <path id="Path_10476-2" d="M136 232h3.579v.8H136zm0 0" class="cls-1" transform="translate(-129.24 -220.468)"/>
                <path id="Path_10477-2" d="M51.579 280H48v2.386h3.579zm-.8 1.591H48.8v-.8h1.988zm0 0" class="cls-1" transform="translate(-45.614 -266.082)"/>
                <path id="Path_10478-2" d="M136 296h3.579v.8H136zm0 0" class="cls-1" transform="translate(-129.24 -281.287)"/>
                <path id="Path_10479-2" d="M48 344h11.93v.8H48zm0 0" class="cls-1" transform="translate(-45.614 -326.901)"/>
                <path id="Path_10480-2" d="M48 376h2.784v.8H48zm0 0" class="cls-1" transform="translate(-45.614 -357.31)"/>
                <path id="Path_10481-2" d="M128 376h4.374v.8H128zm0 0" class="cls-1" transform="translate(-121.637 -357.31)"/>
                <path id="Path_10482-2" d="M224 104h1.193v.8H224zm0 0" class="cls-1" transform="translate(-212.866 -98.83)"/>
                <path id="Path_10483-2" d="M264 104h1.193v.8H264zm0 0" class="cls-1" transform="translate(-250.877 -98.83)"/>
                <path id="Path_10484-2" d="M224 168h1.193v.8H224zm0 0" class="cls-1" transform="translate(-212.866 -159.649)"/>
                <path id="Path_10485-2" d="M264 168h1.193v.8H264zm0 0" class="cls-1" transform="translate(-250.877 -159.649)"/>
                <path id="Path_10486-2" d="M224 232h1.193v.8H224zm0 0" class="cls-1" transform="translate(-212.866 -220.468)"/>
                <path id="Path_10487-2" d="M264 232h1.193v.8H264zm0 0" class="cls-1" transform="translate(-250.877 -220.468)"/>
                <path id="Path_10488-2" d="M224 296h1.193v.8H224zm0 0" class="cls-1" transform="translate(-212.866 -281.287)"/>
                <path id="Path_10489-2" d="M264 296h1.193v.8H264zm0 0" class="cls-1" transform="translate(-250.877 -281.287)"/>
                <path id="Path_10490-2" d="M15.509 0H1.193A1.172 1.172 0 0 0 0 1.193v21.473a1.172 1.172 0 0 0 1.193 1.193h12.089l3.42-3.818V1.193A1.172 1.172 0 0 0 15.509 0zm.4 19.724l-2.389 2.664v-1.71a.376.376 0 0 1 .4-.4h.8v-.8h-.8a1.172 1.172 0 0 0-1.193 1.193v2.386H1.193a.376.376 0 0 1-.4-.4V1.193a.376.376 0 0 1 .4-.4h14.316a.376.376 0 0 1 .4.4zm0 0" class="cls-1"/>
            </g>
        </g>
    </g>
</svg>
