<svg xmlns="http://www.w3.org/2000/svg" width="35" height="35" viewBox="0 0 35 35">
    <defs>
        <style>
            .cls-2{fill:#b7b7b7}
        </style>
    </defs>
    <g id="Group_5403" transform="translate(-272 -791)">
        <g id="Group_5350" transform="translate(0 228)">
            <g id="Group_5267" transform="translate(6 75)">
                <g id="Ellipse_397" fill="none" stroke="#d9d9d9" transform="translate(266 488)">
                    <circle cx="17.5" cy="17.5" r="17.5" stroke="none"/>
                    <circle cx="17.5" cy="17.5" r="17"/>
                </g>
            </g>
        </g>
        <g id="box_3_" transform="translate(256.592 757.186)">
            <path id="Path_10821" d="M125.792 100.687l8.092-4.672-3.806-2.2-8.092 4.672z" class="cls-2" transform="translate(-94.373 -50.627)"/>
            <path id="Path_10822" d="M31.108 157.757L23 153.085v9.345l8.108 4.672z" class="cls-2" transform="translate(0 -107.132)"/>
            <path id="Rectangle_1686" d="M0 0H0.885V0.885H0z" class="cls-2" transform="translate(38.285 55.409)"/>
            <path id="Path_10823" d="M211 157.757v9.343l4.427-2.56v-6.74a1.4 1.4 0 0 1 1.393-1.406h1.161a1.143 1.143 0 0 1 1.091-.839h-.01v-2.466z" class="cls-2" transform="translate(-179.239 -107.132)"/>
            <rect id="Rectangle_1687" width="2.843" height=".979" class="cls-2" rx=".489" transform="translate(39.356 49.071)"/>
            <path id="Path_10824" d="M41.738 42.815l-3.634-2.1-8.092 4.672 3.633 2.1z" class="cls-2" transform="translate(-6.686)"/>
            <path id="Path_10825" d="M327.125 238h-1.174a1.116 1.116 0 0 1-1.078.792h-1.881a1.116 1.116 0 0 1-1.078-.792h-1.174a.747.747 0 0 0-.74.754v9.418a.728.728 0 0 0 .74.732h6.385a.736.736 0 0 0 .75-.732v-9.418a.754.754 0 0 0-.749-.754zm-6.334 2.192a.325.325 0 0 1 .324-.328h1.537a.331.331 0 0 1 .33.328v.219a.327.327 0 0 1-.328.325.314.314 0 0 1-.31-.22h-.9v.885h.013a.326.326 0 1 1 0 .652h-.341a.324.324 0 0 1-.324-.326zm0 2.981a.326.326 0 0 1 .326-.326h1.538a.326.326 0 0 1 .326.326v1.538a.326.326 0 0 1-.326.326h-1.538a.326.326 0 0 1-.326-.326zm.665 4.846h-.341a.315.315 0 0 1-.324-.315v-1.537a.335.335 0 0 1 .324-.339h1.537a.34.34 0 0 1 .33.339v.314a.328.328 0 1 1-.656 0h-.882v.885h.013a.326.326 0 1 1 0 .652zm2.408-1.27l-1.186 1.186a.326.326 0 0 1-.461 0l-.521-.521a.326.326 0 0 1 .461-.461l.291.291.955-.955a.326.326 0 0 1 .461.461zm0-6.023l-1.186 1.186a.326.326 0 0 1-.461 0l-.521-.521a.326.326 0 1 1 .461-.461l.291.291.955-.955a.326.326 0 0 1 .461.461zm2.885 6.548H324.7a.326.326 0 1 1 0-.652h2.049a.326.326 0 1 1 0 .652zm0-2.982H324.7a.326.326 0 1 1 0-.652h2.049a.326.326 0 1 1 0 .652zm0-2.982H324.7a.326.326 0 0 1 0-.652h2.049a.326.326 0 1 1 0 .652z" class="cls-2" transform="translate(-283.159 -188.09)"/>
        </g>
    </g>
</svg>
