<svg xmlns="http://www.w3.org/2000/svg" width="34.093" height="30.414" viewBox="0 0 34.093 30.414">
    <path fill="#ec2928" d="M9.855 51.028a1.122 1.122 0 0 1 0-2.244c4.14.014 15.058 0 19.33.007a2.483 2.483 0 0 0 2.43-1.933l2.425-10.5a2.018 2.018 0 0 0-1.959-2.473c-1.718 0-16.3-.066-23.775-.1l-1.183-4.393a2.419 2.419 0 0 0-2.33-1.783H1a1 1 0 1 0 0 2h3.793a.416.416 0 0 1 .4.306l4.549 16.873a3.119 3.119 0 0 0-3.007 3.172 3.135 3.135 0 0 0 3.12 3.066h1.457a3.5 3.5 0 1 0 6.319 0h6.31a3.5 3.5 0 1 0 6.294-.053 1 1 0 0 0-.319-1.946zm6.116 3.5a1.5 1.5 0 1 1-1.5-1.5 1.5 1.5 0 0 1 1.5 1.497zm11.131 1.5a1.5 1.5 0 0 1-.024-3h.049a1.5 1.5 0 0 1-.024 3zm4.988-20.14a.016.016 0 0 1 0 .017l-1.019 4.425h-3.46l.589-4.465 3.874.016a.016.016 0 0 1 .015.008zm-10.3 10.9v-4.459h3.545l-.589 4.463zm-4.956 0l-.594-4.463h3.551v4.463zm-4.6 0a.541.541 0 0 1-.522-.4l-1.1-4.064h3.611l.594 4.463zm3.741-6.461l-.6-4.517 4.418.018v4.5zm5.815 0v-4.488l4.4.018-.59 4.473zm-8.434-4.525l.6 4.525h-3.884l-1.225-4.54zm15.829 10.99h-2.427l.589-4.463h3.263l-.942 4.078a.493.493 0 0 1-.483.385z" transform="translate(0 -27.609)"/>
</svg>
