<svg xmlns="http://www.w3.org/2000/svg" width="26.568" height="32.162" viewBox="0 0 26.568 32.162">
  <g id="Group_9989" data-name="Group 9989" transform="translate(-32.004 0)">
    <g id="Group_9988" data-name="Group 9988" transform="translate(32.004 0)">
      <g id="Group_9987" data-name="Group 9987" transform="translate(0 0)">
        <path id="Path_15268" data-name="Path 15268" d="M32.643,18.176a.59.59,0,0,0,.061,0,.7.7,0,0,0,.688-.58c.041-.233,1.054-5.711,6.3-5.711h9.788v2.8a.7.7,0,0,0,1.17.517l7.691-6.992a.7.7,0,0,0,0-1.035L50.653.183A.7.7,0,0,0,49.483.7V4.2H39.695C35.526,4.2,32,7.4,32,11.188V17.48A.7.7,0,0,0,32.643,18.176Zm.759-6.988c0-3.032,2.882-5.593,6.292-5.593H50.182a.7.7,0,0,0,.7-.7V2.281l5.953,5.411L50.881,13.1V11.188a.7.7,0,0,0-.7-.7H39.695A7.148,7.148,0,0,0,33.4,13.965Z" transform="translate(-32.004 0)" fill="#fff"/>
        <path id="Path_15269" data-name="Path 15269" d="M57.933,160.016a.7.7,0,0,0-.749.577c-.041.233-1.054,5.711-6.3,5.711H41.792v-2.8a.7.7,0,0,0-1.147-.537l-8.39,6.992a.7.7,0,0,0,0,1.074l8.39,6.992a.7.7,0,0,0,1.147-.537V174h9.089c4.169,0,7.691-3.2,7.691-6.992v-6.292A.7.7,0,0,0,57.933,160.016ZM57.174,167c0,3.032-2.881,5.593-6.292,5.593H41.093a.7.7,0,0,0-.7.7V176l-6.6-5.5,6.6-5.5v2a.7.7,0,0,0,.7.7h9.788a7.148,7.148,0,0,0,6.292-3.477Z" transform="translate(-32.004 -146.028)" fill="#fff"/>
      </g>
    </g>
  </g>
</svg>
