<svg xmlns="http://www.w3.org/2000/svg" width="21.378" height="25.624" viewBox="0 0 21.378 25.624">
    <defs>
        <style>
            .cls-1{fill:#ec2928}
        </style>
    </defs>
    <g id="user_3_" transform="translate(0 -.001)">
        <path id="Path_10494" d="M93.2 12.344a5.972 5.972 0 0 0 4.364-1.808 5.972 5.972 0 0 0 1.808-4.364 5.973 5.973 0 0 0-1.808-4.364 6.17 6.17 0 0 0-8.727 0 5.972 5.972 0 0 0-1.808 4.364 5.972 5.972 0 0 0 1.808 4.364 5.974 5.974 0 0 0 4.363 1.808zM89.9 2.87a4.669 4.669 0 0 1 6.6 0 4.462 4.462 0 0 1 1.368 3.3 4.462 4.462 0 0 1-1.368 3.3 4.668 4.668 0 0 1-6.6 0 4.461 4.461 0 0 1-1.368-3.3 4.461 4.461 0 0 1 1.368-3.3zm0 0" class="cls-1" transform="translate(-82.676)"/>
        <path id="Path_10495" d="M21.327 254.643a15.245 15.245 0 0 0-.208-1.619 12.758 12.758 0 0 0-.4-1.628 8.042 8.042 0 0 0-.669-1.518 5.723 5.723 0 0 0-1.009-1.315 4.45 4.45 0 0 0-1.45-.911 5.01 5.01 0 0 0-1.851-.335 1.878 1.878 0 0 0-1 .425c-.3.2-.652.423-1.045.674a5.987 5.987 0 0 1-1.352.6 5.25 5.25 0 0 1-3.307 0 5.969 5.969 0 0 1-1.351-.6c-.389-.248-.741-.475-1.046-.674a1.876 1.876 0 0 0-1-.425 5 5 0 0 0-1.85.335 4.446 4.446 0 0 0-1.45.911 5.725 5.725 0 0 0-1.009 1.315 8.057 8.057 0 0 0-.673 1.522 12.787 12.787 0 0 0-.4 1.628 15.141 15.141 0 0 0-.208 1.62c-.034.489-.051 1-.051 1.513a4.255 4.255 0 0 0 1.264 3.219 4.549 4.549 0 0 0 3.256 1.188h12.34a4.549 4.549 0 0 0 3.256-1.188 4.253 4.253 0 0 0 1.264-3.219c0-.516-.018-1.026-.052-1.514zm-2.247 3.645a3.063 3.063 0 0 1-2.221.774H4.52a3.063 3.063 0 0 1-2.221-.774 2.778 2.778 0 0 1-.8-2.131c0-.48.016-.954.048-1.409a13.654 13.654 0 0 1 .188-1.458 11.278 11.278 0 0 1 .35-1.435 6.561 6.561 0 0 1 .545-1.235 4.244 4.244 0 0 1 .742-.972 2.952 2.952 0 0 1 .964-.6 3.456 3.456 0 0 1 1.183-.228c.053.028.146.081.3.18.309.2.664.431 1.058.682a7.439 7.439 0 0 0 1.7.758 6.751 6.751 0 0 0 4.231 0 7.448 7.448 0 0 0 1.7-.759c.4-.257.748-.48 1.057-.682.152-.1.245-.152.3-.18a3.459 3.459 0 0 1 1.183.228 2.956 2.956 0 0 1 .964.6 4.231 4.231 0 0 1 .742.972 6.536 6.536 0 0 1 .545 1.234 11.252 11.252 0 0 1 .35 1.435 13.771 13.771 0 0 1 .188 1.459c.032.453.048.927.048 1.409a2.778 2.778 0 0 1-.8 2.131zm0 0" class="cls-1" transform="translate(0 -234.938)"/>
    </g>
</svg>
