<svg xmlns="http://www.w3.org/2000/svg" id="bank" width="27.056" height="27.054" viewBox="0 0 27.056 27.054">
    <defs>
        <style>
            .cls-1{fill:#ec2928}
        </style>
    </defs>
    <g id="Group_4771" transform="translate(11.725 13.076)">
        <g id="Group_4770">
            <path id="Path_10506" d="M209.836 235.173a.9.9 0 1 1 .9-.9h.9a1.8 1.8 0 0 0-1.353-1.74v-.515h-.9v.515a1.8 1.8 0 0 0 .451 3.543.9.9 0 1 1-.9.9h-.9a1.8 1.8 0 0 0 1.353 1.74v.515h.9v-.515a1.8 1.8 0 0 0-.451-3.543z" class="cls-1" transform="translate(-208.032 -232.017)"/>
        </g>
    </g>
    <g id="Group_4773" transform="translate(7.667 10.822)">
        <g id="Group_4772">
            <path id="Path_10507" d="M141.894 192.017a5.862 5.862 0 1 0 5.862 5.862 5.862 5.862 0 0 0-5.862-5.862zm0 10.822a4.96 4.96 0 1 1 4.96-4.96 4.96 4.96 0 0 1-4.96 4.96z" class="cls-1" transform="translate(-136.032 -192.017)"/>
        </g>
    </g>
    <g id="Group_4775">
        <g id="Group_4774">
            <path id="Path_10508" d="M26.605 9.935a.451.451 0 0 0 .451-.451V7.68v-.016a.444.444 0 0 0-.029-.144.027.027 0 0 0 0-.017.451.451 0 0 0-.09-.133.508.508 0 0 0-.042-.033.453.453 0 0 0-.065-.051L13.746.071a.448.448 0 0 0-.436 0L.234 7.286a.453.453 0 0 0-.065.051.509.509 0 0 0-.042.033.451.451 0 0 0-.09.133.027.027 0 0 1 0 .017.444.444 0 0 0-.037.144V9.48a.451.451 0 0 0 .451.451h1.354v13.531H.453a.451.451 0 0 0-.453.451v2.705a.451.451 0 0 0 .451.451h26.154a.451.451 0 0 0 .451-.451v-2.705a.451.451 0 0 0-.451-.451h-1.353V9.935zM13.529.981l11.325 6.248H2.2zm12.625 23.383v1.8H.9v-1.8zm-23.447-.9V9.935h1.8v13.527zm2.705 0V9.935h16.233v13.527zm17.134 0V9.935h1.8v13.527zM.9 9.033v-.9h25.25v.9z" class="cls-1" transform="translate(0 -.015)"/>
        </g>
    </g>
</svg>
